<?xml version="1.0" encoding="UTF-8"?>
<svg xmlns="http://www.w3.org/2000/svg" width="1519.122" height="890" viewBox="0 0 1519.122 890">
  <g id="LOGO_1" data-name="LOGO 1">
    <circle cx="1183.313" cy="541.54" r="287.486" fill="#f15a24"/>
    <path d="M1044.915,312.588s83.827-57.057,192.275-33.512c124.706,94.588,65.584,322.395,65.584,322.395,0,0-72.847,4.235-109.27-93.176-36.423-97.412-115.742-179.519-148.589-195.707Z" fill="#fff"/>
    <path d="M1289.376,617.766c-52.987-25.329-57.517-36.305-44.95-55.034,16.478-24.557,24.582-69.804-6.302-96.464,0,0-4.59,32.421-20.844,38.779-16.254,6.359-40.012-11.796-43.404-40.622-3.391-28.826,3.737-73.587,95.131-69.616,0,0-64.376-91.565-151.702-19.924,0,0,11.87-114.456-36.88-184.826s-39.424-107.674-39.424-107.674c0,0-43.239,27.978-15.261,85.63s-8.816,111.776-23.739,132.684c-9.082,12.725-66.503,96.159-79.181,140.334,28.982,71.221,94.878-30.614,94.878-30.614,0,0,135.216,238.312,190.748,240.431,55.532,2.12,111.871-14.703,80.929-33.086Z" fill="#ff7f1d" stroke="#f15a24" stroke-miterlimit="10" stroke-width="16"/>
    <path d="M933.973,445.761s27.343-79.54,95.108-122.74c0,0,79.81,36.569,135.716,167.016,55.906,130.447,100.8,126.212,132.141,130.447,0,0,.847,15.247-12.706,42.353,0,0-267.67-5.929-350.259-217.076Z" fill="#ff7f1d"/>
    <path d="M1275.715,679.307l-16.541,32.023s-50.329-5.294-132.494,12.494c-82.165,17.788-129.223-1.224-154.635-19.859,0,0-83.863-89.064-46.374-232.609,0,0,52.727,173.221,350.044,207.951Z" fill="#fff"/>
    <path d="M916.494,560.191s14.533,166.32,198.966,165.877c0,0-94.486,17.926-143.416-22.102-55.55-65.341-55.55-143.775-55.55-143.775Z" fill="#b4b4b4" opacity=".42"/>
    <path d="M925.671,471.357s-28.428,200.713,223.636,247.984c0,0-106.596,33.062-177.262-15.375,0,0-85.213-86.056-46.374-232.609Z" fill="#b4b4b4" opacity=".21"/>
    <path d="M1129.873,735.738s-63.657,1.691-90.422-34.224c-26.765-35.915-25.273-61.372-25.273-61.372,0,0-31.254,44.225,3.949,96.197s91.7,36.109,91.7,36.109" fill="#ff7f1d" stroke="#f15a24" stroke-miterlimit="10" stroke-width="16"/>
    <path d="M1249.503,723.825s-48.759,79.534-96.706,82.588c-43.341,2.76-123.809-34.706-157.044-75.485,0,0,57.232,18.591,108.056,10.685,73.755-11.473,111.812-22.023,145.694-17.788Z" fill="#ff7f1d"/>
    <path d="M1188.891,808.24s39.763-18.345,82.116-81.027c0,0,45.44.564,58.262,37.98,0,0-50.071,43.048-140.378,43.048Z" fill="#fff"/>
    <path d="M1316.774,620.766s-10.306,37.341-15.035,43.2c0,0,89.012,2.138,133.906-33.438,0,0,29.858-71.032,12.079-131.596,0,0-14.268,121.834-130.95,121.834Z" fill="#fff"/>
    <path d="M1447.723,498.932s-5.087,111.575-56.046,153.119c0,0,33.066-10.373,43.967-21.523,0,0,31.904-71.843,12.079-131.596Z" fill="#b4b4b4" opacity=".43"/>
    <path d="M1326.948,681.884s41.998-16.65,42.112-53.64c0,0,14.851,6.91,17.801,39.714,0,0,55.438-55.478,78.073-24.1,0,0-50.006,37.188-59.307,65.701" fill="#ff7f1d" stroke="#f15a24" stroke-miterlimit="10" stroke-width="16"/>
    <path d="M1296.357,681.856s-12.901,27.004-17.207,32.157c0,0,46.116,6.071,60.988,43.694,0,0,67.106-38.306,86.279-104.575,0,0-58.516,35.12-130.06,28.724Z" fill="#ff7f1d"/>
    <path d="M1433.032,481.77s15.779-22.163,4.688-55.184,9.438-78.684-1.586-103.694c0,0-33.629,24.369-46.38,3.667,0,0-2.821-84.803,11.673-104.049,0,0-89.057,22.55-83.705,68.184,0,0,3.182,10.148-25.673-.95-7.816-3.006,18.901,31.475,18.901,31.475l67.837,141.285,11.826,49.753,42.42-30.486Z" fill="#ff7f1d" stroke="#f15a24" stroke-miterlimit="10" stroke-width="16"/>
    <path d="M1269.008,287.62s98.964,75.249,53.154,314.76c0,0,115.557-8.208,115.557-144.866,0,0-21.925-121.921-168.711-169.894Z" fill="#ff7f1d"/>
    <path d="M1188.891,808.24s102.741-18.057,127.887-62.894c0,0,11.924,10.024,12.491,19.846,0,0-53.368,44.783-140.378,43.048Z" fill="#b4b4b4" opacity=".43"/>
    <path d="M1296.949,359.926s24.621,185.07-17.799,237.137c0,0,13.274,6.188,23.623,3.409,0,0,35.376-128.301-5.825-240.546Z" fill="#b4b4b4" opacity=".48"/>
    <path d="M1303.675,492.929s-8.367,83.49-54.172,91.45c0,0,17.015,13.749,29.647,12.684,0,0,25.437-37.008,24.525-104.134Z" fill="#b4b4b4" opacity=".21"/>
    <path d="M1452.009,643.874s-21.09,2.571-47.912,32.606-44.51,28.94-44.51,28.94c0,0,35.236-21.498,42.427-40.647,28.922-23.975,46.239-23.922,49.995-20.898Z" fill="#f9d770" opacity=".22"/>
    <path d="M1405.799,422.45s33.129,26.115,20.618,100.818c-17.649,50.805-70.999,76.618-104.255,79.112,0,0,117.631-23.958,83.637-179.93Z" fill="#b55b15" opacity=".46"/>
    <path d="M1373.715,646.429s-.077,25.27-12.1,32.716-15.168.984-15.168.984c0,0,18.442-9.727,27.268-33.7Z" fill="#f9d770" opacity=".13"/>
    <path d="M1387.265,234.552s-32.815,20.229-36.278,44.689,0,36.892,0,36.892c0,0-23.429-8.351-25.26-24.922s12.54-37.985,61.538-56.659Z" fill="#f9d770" opacity=".45"/>
    <path d="M1387.265,234.552s-20.606,15.337-21.122,34.914c0,0-3.762-.455-5.397-11.179,0,0,11.823-15.465,26.519-23.735Z" fill="#ffa45c" opacity=".42"/>
    <path d="M1431.023,335.48s-3.114,33.496-14.424,38.732c0,0,11.563-3.174,13.392-11.825,1.399-8.502,1.942-23.324,1.033-26.907Z" fill="#ffa45c" opacity=".42"/>
  </g>
  <g id="Dimension_LOGO_1" data-name="Dimension LOGO 1">
    <path d="M987.954,335.751s-51.462,129.769,97.91,273.735c0,0-108.33-46.264-154.771-169.181,0,0,7.659-28.398,56.861-104.554Z" fill="#b55b15" opacity=".46"/>
    <path d="M952.784,394.075s-18.591,35.162-21.691,46.231c0,0,13.719,38.762,38.092,70.836,0,0-34.069-65.667-16.4-117.067Z" fill="#b55b15" opacity=".82"/>
    <path d="M1032.966,102.088s-8.012,42.76,28.529,96.801c36.541,54.041,41.926,140.92,46.374,193.747,0,0,12.933-115.673-25.007-183.551-33.131-51.211-46.889-76.383-49.895-106.998Z" fill="#f9d770" opacity=".44"/>
    <path d="M1251.034,387.068s-43.99-20.271-92.991,0-36.313,82.474-34.452,89.633c0,0,2.483-60.987,57.255-65.71,0,0,20.791-23.743,70.188-23.922Z" fill="#f9d770" opacity=".44"/>
    <path d="M1242.326,483.034s14.064,16.807,6.271,51.417c-6.288,22.806-15.706,26.87-17.432,37.217,0,0,8.737-33.161,11.993-43.822,4.455-14.587.305-33.926-.832-44.813Z" fill="#f9d770" opacity=".22"/>
    <path d="M1053.433,185.935s24.401,49.129,8.48,84.657c0,0,32.851,7.598,45.955,122.044,0,0-3.455-97.739-17.21-145.274-13.755-47.535-37.225-61.427-37.225-61.427Z" fill="#ffa45c" opacity=".38"/>
    <path d="M1183.313,408.974s-51.673.712-59.722,67.727c0,0,17.506-39.381,41.927-24.093,0,0-3.122-22.516,17.795-43.634Z" fill="#ffa45c" opacity=".42"/>
    <path d="M1242.326,483.034s5.361,36.277-20.309,58.505c0,0,14.717.294,9.148,30.129,0,0,8.976-28.442,13.47-50.782s-.043-31.446-2.309-37.853Z" fill="#ffa45c" opacity=".11"/>
    <path d="M1011.561,667.132s2.463,51.803,41.338,81.287c0,0-13.555-22.533-5.404-27.752,0,0-19.919-12.891-35.934-53.535Z" fill="#fcb500" opacity=".44"/>
    <path d="M1249.503,723.825s-72.658,108.184-183.872,58.806c0,0,64.526,33.046,99.393,21.426,42.996-12.777,84.48-80.232,84.48-80.232Z" fill="#b35914" opacity=".5"/>
    <path d="M1249.503,723.825s-104.147,83.138-191.814,54.702c0,0,47.537,28.113,103.383,11.322s88.431-66.024,88.431-66.024Z" fill="#b35914" opacity=".17"/>
  </g>
</svg>