<?xml version="1.0" encoding="UTF-8"?>
<svg xmlns="http://www.w3.org/2000/svg" width="1519.122" height="890" viewBox="0 0 1519.122 890">
  <g id="LOGO_1" data-name="LOGO 1">
    <circle cx="1183.313" cy="541.54" r="287.486" fill="#f15a24"/>
    <path d="M1044.915,312.588s83.827-57.057,192.275-33.512c124.706,94.588,65.584,322.395,65.584,322.395,0,0-72.847,4.235-109.27-93.176-36.423-97.412-115.742-179.519-148.589-195.707Z" fill="#fff"/>
    <path d="M1289.376,617.766c-52.987-25.329-57.517-36.305-44.95-55.034,16.478-24.557,24.582-69.804-6.302-96.464,0,0-4.59,32.421-20.844,38.779-16.254,6.359-40.012-11.796-43.404-40.622-3.391-28.826,3.737-73.587,95.131-69.616,0,0-64.376-91.565-151.702-19.924,0,0,11.87-114.456-36.88-184.826s-39.424-107.674-39.424-107.674c0,0-43.239,27.978-15.261,85.63s-8.816,111.776-23.739,132.684c-9.082,12.725-66.503,96.159-79.181,140.334,28.982,71.221,94.878-30.614,94.878-30.614,0,0,135.216,238.312,190.748,240.431,55.532,2.12,111.871-14.703,80.929-33.086Z" fill="#ff7f1d" stroke="#f15a24" stroke-miterlimit="10" stroke-width="16"/>
    <path d="M933.973,445.761s27.343-79.54,95.108-122.74c0,0,79.81,36.569,135.716,167.016,55.906,130.447,100.8,126.212,132.141,130.447,0,0,.847,15.247-12.706,42.353,0,0-267.67-5.929-350.259-217.076Z" fill="#ff7f1d"/>
    <path d="M1275.715,679.307l-16.541,32.023s-50.329-5.294-132.494,12.494c-82.165,17.788-129.223-1.224-154.635-19.859,0,0-83.863-89.064-46.374-232.609,0,0,52.727,173.221,350.044,207.951Z" fill="#fff"/>
    <path d="M916.494,560.191s14.533,166.32,198.966,165.877c0,0-94.486,17.926-143.416-22.102-55.55-65.341-55.55-143.775-55.55-143.775Z" fill="#b4b4b4" opacity=".42"/>
    <path d="M925.671,471.357s-28.428,200.713,223.636,247.984c0,0-106.596,33.062-177.262-15.375,0,0-85.213-86.056-46.374-232.609Z" fill="#b4b4b4" opacity=".21"/>
    <path d="M1129.873,735.738s-63.657,1.691-90.422-34.224c-26.765-35.915-25.273-61.372-25.273-61.372,0,0-31.254,44.225,3.949,96.197s91.7,36.109,91.7,36.109" fill="#ff7f1d" stroke="#f15a24" stroke-miterlimit="10" stroke-width="16"/>
    <path d="M1249.503,723.825s-48.759,79.534-96.706,82.588c-43.341,2.76-123.809-34.706-157.044-75.485,0,0,57.232,18.591,108.056,10.685,73.755-11.473,111.812-22.023,145.694-17.788Z" fill="#ff7f1d"/>
    <path d="M1188.891,808.24s39.763-18.345,82.116-81.027c0,0,45.44.564,58.262,37.98,0,0-50.071,43.048-140.378,43.048Z" fill="#fff"/>
    <path d="M1316.774,620.766s-10.306,37.341-15.035,43.2c0,0,89.012,2.138,133.906-33.438,0,0,29.858-71.032,12.079-131.596,0,0-14.268,121.834-130.95,121.834Z" fill="#fff"/>
    <path d="M1447.723,498.932s-5.087,111.575-56.046,153.119c0,0,33.066-10.373,43.967-21.523,0,0,31.904-71.843,12.079-131.596Z" fill="#b4b4b4" opacity=".43"/>
    <path d="M1326.948,681.884s41.998-16.65,42.112-53.64c0,0,14.851,6.91,17.801,39.714,0,0,55.438-55.478,78.073-24.1,0,0-50.006,37.188-59.307,65.701" fill="#ff7f1d" stroke="#f15a24" stroke-miterlimit="10" stroke-width="16"/>
    <path d="M1296.357,681.856s-12.901,27.004-17.207,32.157c0,0,46.116,6.071,60.988,43.694,0,0,67.106-38.306,86.279-104.575,0,0-58.516,35.12-130.06,28.724Z" fill="#ff7f1d"/>
    <path d="M1433.032,481.77s15.779-22.163,4.688-55.184,9.438-78.684-1.586-103.694c0,0-33.629,24.369-46.38,3.667,0,0-2.821-84.803,11.673-104.049,0,0-89.057,22.55-83.705,68.184,0,0,3.182,10.148-25.673-.95-7.816-3.006,18.901,31.475,18.901,31.475l67.837,141.285,11.826,49.753,42.42-30.486Z" fill="#ff7f1d" stroke="#f15a24" stroke-miterlimit="10" stroke-width="16"/>
    <path d="M1269.008,287.62s98.964,75.249,53.154,314.76c0,0,115.557-8.208,115.557-144.866,0,0-21.925-121.921-168.711-169.894Z" fill="#ff7f1d"/>
    <path d="M1188.891,808.24s102.741-18.057,127.887-62.894c0,0,11.924,10.024,12.491,19.846,0,0-53.368,44.783-140.378,43.048Z" fill="#b4b4b4" opacity=".43"/>
    <path d="M1296.949,359.926s24.621,185.07-17.799,237.137c0,0,13.274,6.188,23.623,3.409,0,0,35.376-128.301-5.825-240.546Z" fill="#b4b4b4" opacity=".48"/>
    <path d="M1303.675,492.929s-8.367,83.49-54.172,91.45c0,0,17.015,13.749,29.647,12.684,0,0,25.437-37.008,24.525-104.134Z" fill="#b4b4b4" opacity=".21"/>
    <path d="M1452.009,643.874s-21.09,2.571-47.912,32.606-44.51,28.94-44.51,28.94c0,0,35.236-21.498,42.427-40.647,28.922-23.975,46.239-23.922,49.995-20.898Z" fill="#f9d770" opacity=".22"/>
    <path d="M1405.799,422.45s33.129,26.115,20.618,100.818c-17.649,50.805-70.999,76.618-104.255,79.112,0,0,117.631-23.958,83.637-179.93Z" fill="#b55b15" opacity=".46"/>
    <path d="M1373.715,646.429s-.077,25.27-12.1,32.716-15.168.984-15.168.984c0,0,18.442-9.727,27.268-33.7Z" fill="#f9d770" opacity=".13"/>
    <path d="M1387.265,234.552s-32.815,20.229-36.278,44.689,0,36.892,0,36.892c0,0-23.429-8.351-25.26-24.922s12.54-37.985,61.538-56.659Z" fill="#f9d770" opacity=".45"/>
    <path d="M1387.265,234.552s-20.606,15.337-21.122,34.914c0,0-3.762-.455-5.397-11.179,0,0,11.823-15.465,26.519-23.735Z" fill="#ffa45c" opacity=".42"/>
    <path d="M1431.023,335.48s-3.114,33.496-14.424,38.732c0,0,11.563-3.174,13.392-11.825,1.399-8.502,1.942-23.324,1.033-26.907Z" fill="#ffa45c" opacity=".42"/>
  </g>
  <g id="Dimension_LOGO_1" data-name="Dimension LOGO 1">
    <path d="M987.954,335.751s-51.462,129.769,97.91,273.735c0,0-108.33-46.264-154.771-169.181,0,0,7.659-28.398,56.861-104.554Z" fill="#b55b15" opacity=".46"/>
    <path d="M952.784,394.075s-18.591,35.162-21.691,46.231c0,0,13.719,38.762,38.092,70.836,0,0-34.069-65.667-16.4-117.067Z" fill="#b55b15" opacity=".82"/>
    <path d="M1032.966,102.088s-8.012,42.76,28.529,96.801c36.541,54.041,41.926,140.92,46.374,193.747,0,0,12.933-115.673-25.007-183.551-33.131-51.211-46.889-76.383-49.895-106.998Z" fill="#f9d770" opacity=".44"/>
    <path d="M1251.034,387.068s-43.99-20.271-92.991,0-36.313,82.474-34.452,89.633c0,0,2.483-60.987,57.255-65.71,0,0,20.791-23.743,70.188-23.922Z" fill="#f9d770" opacity=".44"/>
    <path d="M1242.326,483.034s14.064,16.807,6.271,51.417c-6.288,22.806-15.706,26.87-17.432,37.217,0,0,8.737-33.161,11.993-43.822,4.455-14.587.305-33.926-.832-44.813Z" fill="#f9d770" opacity=".22"/>
    <path d="M1053.433,185.935s24.401,49.129,8.48,84.657c0,0,32.851,7.598,45.955,122.044,0,0-3.455-97.739-17.21-145.274-13.755-47.535-37.225-61.427-37.225-61.427Z" fill="#ffa45c" opacity=".38"/>
    <path d="M1183.313,408.974s-51.673.712-59.722,67.727c0,0,17.506-39.381,41.927-24.093,0,0-3.122-22.516,17.795-43.634Z" fill="#ffa45c" opacity=".42"/>
    <path d="M1242.326,483.034s5.361,36.277-20.309,58.505c0,0,14.717.294,9.148,30.129,0,0,8.976-28.442,13.47-50.782s-.043-31.446-2.309-37.853Z" fill="#ffa45c" opacity=".11"/>
    <path d="M1011.561,667.132s2.463,51.803,41.338,81.287c0,0-13.555-22.533-5.404-27.752,0,0-19.919-12.891-35.934-53.535Z" fill="#fcb500" opacity=".44"/>
    <path d="M1249.503,723.825s-72.658,108.184-183.872,58.806c0,0,64.526,33.046,99.393,21.426,42.996-12.777,84.48-80.232,84.48-80.232Z" fill="#b35914" opacity=".5"/>
    <path d="M1249.503,723.825s-104.147,83.138-191.814,54.702c0,0,47.537,28.113,103.383,11.322s88.431-66.024,88.431-66.024Z" fill="#b35914" opacity=".17"/>
  </g>
  <g id="text">
    <g>
      <path d="M1282.564,834.631l-3.151,1.272-.406-1.006,7.728-3.12.406,1.006-3.15,1.272,4.176,10.343-1.426.575-4.176-10.343Z" fill="#ff7f1d"/>
      <path d="M1290.373,830.308l2.129-.859,8.132,8.551-.637.258-.152-11.773,2.112-.853,4.582,11.349-1.408.568-4.372-10.829.302-.122.164,12.528-1.106.446-8.63-9.109.234-.095,4.372,10.829-1.14.46-4.582-11.349Z" fill="#ff7f1d"/>
    </g>
    <g>
      <path d="M911.014,689.928c4.704,7.589,7.172,11.282,12.317,18.46-1.591,1.142-2.387,1.713-3.978,2.854-3.407-4.752-5.064-7.173-8.282-12.103-3.006,1.963-4.509,2.944-7.515,4.907,2.545,3.899,3.846,5.821,6.507,9.612-1.587,1.115-2.38,1.672-3.967,2.786-2.698-3.844-4.018-5.794-6.598-9.747-4.614,3.013-6.921,4.519-11.535,7.532-1.856-2.844-2.77-4.28-4.567-7.178,9.207-5.707,18.413-11.414,27.62-17.122Z" fill="#ff7f1d"/>
      <path d="M932.594,720.691c1.891,2.393,2.848,3.576,4.788,5.917-8.339,6.914-16.678,13.828-25.017,20.742-2.131-2.572-3.183-3.873-5.26-6.501,8.497-6.719,16.993-13.439,25.49-20.158Z" fill="#ff7f1d"/>
      <path d="M948.997,739.886c3.72,4.029,5.619,6,9.487,9.854,1.922,1.914,3.334,3.84,4.238,5.808.903,1.968,1.234,3.873.978,5.731-.256,1.858-1.088,3.569-2.516,5.124-1.408,1.533-3.029,2.5-4.875,2.882-1.847.382-3.825.157-5.921-.692-2.097-.85-4.208-2.314-6.301-4.399-2.79-2.78-4.168-4.192-6.886-7.058l3.517-3.338c2.561,2.701,3.859,4.032,6.485,6.655,1.502,1.5,2.984,2.3,4.427,2.407,1.441.106,2.76-.471,3.958-1.717,1.197-1.245,1.719-2.563,1.578-3.948-.141-1.385-.953-2.804-2.434-4.282-1.657-1.655-2.479-2.491-4.11-4.178-7.937,7.674-11.905,11.512-19.842,19.187-2.286-2.365-3.416-3.561-5.653-5.984,7.957-7.351,15.914-14.702,23.871-22.053ZM944.179,760.409c2.322,2.348,3.496,3.507,5.868,5.795-1.496,6.799-2.174,10.235-3.383,17.171-2.613-2.39-3.906-3.602-6.464-6.061,1.454-6.831,2.251-10.214,3.98-16.904Z" fill="#ff7f1d"/>
      <path d="M979.978,769.334c6.662,5.553,10.079,8.214,17.063,13.296-1.153,1.583-1.729,2.375-2.882,3.959-4.647-3.382-6.938-5.125-11.446-8.713-2.117,2.659-3.175,3.988-5.292,6.647,3.526,2.806,5.31,4.178,8.919,6.861-1.169,1.571-1.753,2.357-2.922,3.928-3.66-2.721-5.47-4.113-9.046-6.959-2.32,2.914-3.48,4.371-5.8,7.285,4.936,3.928,7.445,5.835,12.537,9.532-1.151,1.585-1.727,2.377-2.878,3.962-7.806-5.667-11.624-8.637-19.064-14.839,6.938-8.32,13.875-16.64,20.812-24.96Z" fill="#ff7f1d"/>
      <path d="M1015.075,831.934c-1.415-1.613-2.241-3.262-2.488-4.935-.248-1.672.071-3.256.938-4.751.706-1.218,1.595-2.154,2.66-2.816,1.065-.66,2.509-1.093,4.33-1.315,1.82-.222,4.192-.274,7.105-.187,2.634.078,4.628-.122,5.982-.57,1.354-.448,2.328-1.26,2.93-2.426.397-.768.475-1.537.24-2.309-.236-.772-.73-1.355-1.485-1.754-.846-.447-1.678-.538-2.501-.272-.824.266-1.488.862-1.991,1.791-.396.732-.647,1.488-.752,2.267-.105.78-.047,1.63.177,2.546,2.125,9.106,4.706,18.232,7.657,27.104-2.904-1.354-4.348-2.048-7.222-3.466-3.022-9.714-4.336-14.572-6.578-24.25-.654-2.815-.382-5.222.754-7.227.757-1.336,1.766-2.328,3.015-2.984,1.249-.656,2.646-.948,4.194-.883,1.547.065,3.146.542,4.816,1.426,1.46.774,2.613,1.714,3.464,2.833.85,1.12,1.352,2.323,1.504,3.616.152,1.293-.066,2.542-.665,3.745-.884,1.776-2.304,3.119-4.28,4.003-1.976.884-4.755,1.331-8.344,1.275-2.348-.049-4.178.138-5.487.589-1.31.451-2.286,1.245-2.92,2.393-.697,1.261-.762,2.542-.181,3.844.58,1.302,1.749,2.426,3.5,3.353,2.205,1.167,4.29,1.636,6.224,1.415,1.934-.221,3.591-1.06,4.97-2.502,1.379-1.442,2.349-3.363,2.939-5.749,1.77.877,2.658,1.308,4.439,2.16-.915,3.145-2.467,5.641-4.709,7.457-2.243,1.815-4.826,2.822-7.738,2.991-2.914.17-5.824-.503-8.68-2.019-2.461-1.307-4.402-2.781-5.816-4.392Z" fill="#ff7f1d"/>
      <path d="M1080.566,826.673c2.881,1.024,4.327,1.52,7.232,2.477-.426,9.385-.621,18.818-.583,28.212-.923-.281-1.384-.423-2.305-.71,5.277-7.76,10.385-15.678,15.279-23.686,2.611.748,3.92,1.109,6.548,1.804.136,9.411.507,18.854,1.109,28.247-.854-.205-1.281-.309-2.134-.519,4.858-8.066,9.535-16.283,13.989-24.579,2.319.514,3.481.76,5.811,1.233-5.452,9.988-11.043,19.798-16.856,29.581-3.148-.735-4.718-1.121-7.847-1.925-.522-9.419-.811-18.888-.861-28.321.971.274,1.457.41,2.431.677-4.847,8.068-9.91,16.047-15.142,23.87-2.965-.887-4.442-1.346-7.386-2.296.029-11.389.266-22.686.716-34.066Z" fill="#ff7f1d"/>
      <path d="M1139.673,841.703c2.936.463,4.408.678,7.358,1.074-.705,5.252-1.057,7.879-1.762,13.131,5.275.709,7.923,1.013,13.234,1.518.5-5.276.75-7.914,1.25-13.19,2.99.284,4.488.409,7.489.625-.776,10.805-1.552,21.61-2.328,32.415-3.297-.237-4.943-.375-8.228-.687.536-5.658.805-8.487,1.341-14.146-5.39-.512-8.076-.82-13.429-1.54-.756,5.633-1.134,8.45-1.89,14.083-3.241-.436-4.858-.672-8.084-1.18,1.683-10.701,3.366-21.402,5.049-32.103Z" fill="#ff7f1d"/>
      <path d="M1184.809,845.653c3.001.055,4.503.065,7.511.051.049,10.833.099,21.665.148,32.498-3.305.015-4.955.004-8.252-.056.198-10.831.396-21.662.594-32.493Z" fill="#ff7f1d"/>
      <path d="M1216.288,849.627c-3.57.274-5.355.387-8.921.565-.097-1.956-.146-2.934-.242-4.891,10.044-.501,15.081-.943,25.15-2.225.247,1.943.37,2.914.617,4.858-3.554.453-5.33.654-8.883,1.01,1.097,10.986,1.645,16.479,2.741,27.464-3.345.335-5.017.483-8.359.74-.841-11.008-1.262-16.513-2.104-27.521Z" fill="#ff7f1d"/>
      <path d="M1247.037,840.855c8.781-1.525,13.17-2.439,21.924-4.578.465,1.903.697,2.854,1.162,4.756-5.825,1.423-8.742,2.067-14.581,3.222.658,3.334.987,5.001,1.646,8.335,4.566-.903,6.848-1.394,11.406-2.457.445,1.907.667,2.861,1.111,4.768-4.623,1.078-6.938,1.576-11.569,2.492.721,3.654,1.082,5.481,1.804,9.135,6.393-1.264,9.587-1.971,15.964-3.537.467,1.902.701,2.853,1.167,4.755-9.776,2.4-14.678,3.424-24.485,5.127-1.849-10.673-3.699-21.346-5.549-32.019Z" fill="#ff7f1d"/>
    </g>
  </g>
</svg>